<?xml version="1.0" encoding="UTF-8" standalone="no"?>
<svg
   viewBox="0 0 25.714286 25.714286"
   version="1.1"
   x="0px"
   y="0px"
   id="svg3"
   sodipodi:docname="capability.svg"
   width="18"
   height="18"
   inkscape:version="1.3.1 (9b9bdc1480, 2023-11-25, custom)"
   xmlns:inkscape="http://www.inkscape.org/namespaces/inkscape"
   xmlns:sodipodi="http://sodipodi.sourceforge.net/DTD/sodipodi-0.dtd"
   xmlns="http://www.w3.org/2000/svg"
   xmlns:svg="http://www.w3.org/2000/svg"
   xmlns:rdf="http://www.w3.org/1999/02/22-rdf-syntax-ns#"
   xmlns:cc="http://creativecommons.org/ns#"
   xmlns:dc="http://purl.org/dc/elements/1.1/">
  <defs
     id="defs3" />
  <sodipodi:namedview
     id="namedview3"
     pagecolor="#ffffff"
     bordercolor="#000000"
     borderopacity="0.25"
     inkscape:showpageshadow="2"
     inkscape:pageopacity="0.0"
     inkscape:pagecheckerboard="0"
     inkscape:deskcolor="#d1d1d1"
     showgrid="false"
     inkscape:zoom="8.3003458"
     inkscape:cx="15.60176"
     inkscape:cy="16.445098"
     inkscape:window-width="1920"
     inkscape:window-height="963"
     inkscape:window-x="0"
     inkscape:window-y="32"
     inkscape:window-maximized="1"
     inkscape:current-layer="g2" />
  <title
     id="title1">gear-solid</title>
  <desc
     id="desc1">Created with Sketch.</desc>
  <g
     stroke="none"
     stroke-width="1"
     fill="none"
     fill-rule="evenodd"
     id="g2"
     transform="scale(0.989011)">
    <g
       transform="translate(-20,-246)"
       fill="#000000"
       id="g1"
       style="fill:#d45500">
      <path
         d="m 34.440636,246 c 0.542455,0 1.015182,0.36991 1.146364,0.89582 v 0 l 0.481,1.92163 c 0.686636,0.20682 1.343727,0.47864 1.964182,0.81191 v 0 l 1.697091,-1.01754 c 0.189091,-0.11346 0.399454,-0.169 0.607454,-0.169 0.306091,0 0.608637,0.11818 0.836727,0.34627 v 0 l 2.037455,2.03745 c 0.384091,0.38291 0.457364,0.97855 0.178455,1.44419 v 0 l -1.018728,1.69709 c 0.333273,0.62045 0.605091,1.27754 0.81191,1.96418 v 0 l 1.922818,0.481 C 45.630091,256.54418 46,257.01691 46,257.55936 v 0 2.88128 c 0,0.54245 -0.369909,1.01518 -0.894636,1.14754 v 0 l -1.922818,0.47982 c -0.206819,0.68664 -0.478637,1.34491 -0.81191,1.96418 v 0 l 1.018728,1.69827 c 0.278909,0.46446 0.205636,1.06009 -0.178455,1.443 v 0 l -2.037455,2.03864 c -0.22809,0.22691 -0.530636,0.34627 -0.836727,0.34627 -0.208,0 -0.418363,-0.0555 -0.607454,-0.169 v 0 l -1.697091,-1.01872 c -0.620455,0.33327 -1.277546,0.60627 -1.964182,0.8119 v 0 l -0.481,1.92164 C 35.455818,271.63127 34.983091,272 34.440636,272 v 0 h -2.881272 c -0.542455,0 -1.015182,-0.36873 -1.146364,-0.89582 v 0 l -0.481,-1.92164 c -0.686636,-0.20563 -1.343727,-0.47863 -1.964182,-0.8119 v 0 l -1.697091,1.01872 c -0.189091,0.11346 -0.399454,0.169 -0.607454,0.169 -0.306091,0 -0.608637,-0.11936 -0.836727,-0.34627 v 0 l -2.037455,-2.03864 c -0.384091,-0.38291 -0.457364,-0.97854 -0.178455,-1.443 v 0 l 1.018728,-1.69827 c -0.333273,-0.61927 -0.605091,-1.27754 -0.81191,-1.96418 v 0 l -1.922818,-0.47982 C 20.369909,261.45582 20,260.98309 20,260.44064 v 0 -2.88128 c 0,-0.54245 0.369909,-1.01518 0.894636,-1.14636 v 0 l 1.922818,-0.481 c 0.206819,-0.68664 0.478637,-1.34373 0.81191,-1.96418 v 0 l -1.018728,-1.69709 c -0.278909,-0.46564 -0.205636,-1.06128 0.178455,-1.44419 v 0 l 2.037455,-2.03745 c 0.22809,-0.22809 0.530636,-0.34627 0.836727,-0.34627 0.208,0 0.418363,0.0555 0.607454,0.169 v 0 l 1.697091,1.01754 c 0.620455,-0.33327 1.277546,-0.60509 1.964182,-0.81191 v 0 l 0.481,-1.92163 C 30.544182,246.36991 31.016909,246 31.559364,246 v 0 z M 33,253.09114 c -3.258273,0 -5.909091,2.65082 -5.909091,5.9091 0,3.25827 2.650818,5.90909 5.909091,5.90909 3.258273,0 5.909091,-2.65082 5.909091,-5.90909 0,-3.25828 -2.650818,-5.9091 -5.909091,-5.9091 z"
         id="path1"
         style="fill:#d45500" />
    </g>
  </g>
  <metadata
     id="metadata3">
    <rdf:RDF>
      <cc:Work
         rdf:about="">
        <dc:title>gear-solid</dc:title>
      </cc:Work>
    </rdf:RDF>
  </metadata>
</svg>
