<?xml version="1.0" encoding="UTF-8" standalone="no"?>
<svg
   data-name="Layer 1"
   viewBox="0 0 60 60"
   x="0px"
   y="0px"
   version="1.1"
   id="svg2"
   sodipodi:docname="labor.svg"
   width="18"
   height="18"
   inkscape:version="1.3.2 (091e20ef0f, 2023-11-25, custom)"
   xmlns:inkscape="http://www.inkscape.org/namespaces/inkscape"
   xmlns:sodipodi="http://sodipodi.sourceforge.net/DTD/sodipodi-0.dtd"
   xmlns="http://www.w3.org/2000/svg"
   xmlns:svg="http://www.w3.org/2000/svg">
  <defs
     id="defs2">
    <filter
       id="mask-powermask-path-effect7_inverse"
       inkscape:label="filtermask-powermask-path-effect7"
       style="color-interpolation-filters:sRGB"
       height="100"
       width="100"
       x="-50"
       y="-50">
      <feColorMatrix
         id="mask-powermask-path-effect7_primitive1"
         values="1"
         type="saturate"
         result="fbSourceGraphic" />
      <feColorMatrix
         id="mask-powermask-path-effect7_primitive2"
         values="-1 0 0 0 1 0 -1 0 0 1 0 0 -1 0 1 0 0 0 1 0 "
         in="fbSourceGraphic" />
    </filter>
  </defs>
  <sodipodi:namedview
     id="namedview2"
     pagecolor="#ffffff"
     bordercolor="#000000"
     borderopacity="0.25"
     inkscape:showpageshadow="2"
     inkscape:pageopacity="0.0"
     inkscape:pagecheckerboard="0"
     inkscape:deskcolor="#d1d1d1"
     inkscape:zoom="24.1875"
     inkscape:cx="10.935401"
     inkscape:cy="13.643411"
     inkscape:window-width="1920"
     inkscape:window-height="1131"
     inkscape:window-x="0"
     inkscape:window-y="0"
     inkscape:window-maximized="1"
     inkscape:current-layer="svg2"
     showguides="true">
    <sodipodi:guide
       position="30,83.387511"
       orientation="-1,0"
       id="guide1"
       inkscape:locked="false"
       inkscape:label=""
       inkscape:color="rgb(0,134,229)" />
    <sodipodi:guide
       position="-21.606802,30"
       orientation="0,1"
       id="guide2"
       inkscape:locked="false"
       inkscape:label=""
       inkscape:color="rgb(0,134,229)" />
  </sodipodi:namedview>
  <g
     id="g6"
     transform="matrix(0.74012544,0,0,0.63089804,-6.8576179,-1.2917792)"
     style="stroke:#000000;stroke-opacity:1;fill:#b3b3b3">
    <polygon
       points="38.6,33 38,30.1 43.8,35.3 53,33.6 53,26.5 33.4,17.8 19.5,40 24.9,47.9 38.2,69.5 34.7,96 65.9,96 66.7,71.2 72.8,63.5 76,45.1 67.1,53.4 59.3,46.2 46.9,43.3 57.4,60.4 58.1,66 61.5,67.3 57.4,69.5 56.8,83.6 55.3,69 51.2,69 56.6,63 42.8,41.1 34.1,37.4 36.7,37 "
       id="polygon1"
       style="stroke:#000000;stroke-opacity:1;fill:#b3b3b3" />
    <polygon
       points="80.4,37.4 73.9,30.7 61.5,46 67.3,51.5 "
       id="polygon2"
       style="stroke:#000000;stroke-opacity:1;fill:#b3b3b3" />
    <polygon
       points="73.4,27.6 64,20.8 52,41.1 60,45.2 "
       id="polygon3"
       style="stroke:#000000;stroke-opacity:1;fill:#b3b3b3" />
    <polygon
       points="54.3,10.7 48.5,21.3 55.1,25.5 55.4,31.8 63.8,17.8 "
       id="polygon4"
       style="stroke:#000000;stroke-opacity:1;fill:#b3b3b3" />
    <polygon
       points="44,4.4 36.2,16.6 46.9,21.3 53,10.7 "
       id="polygon5"
       style="stroke:#000000;stroke-opacity:1;fill:#b3b3b3" />
    <polygon
       points="53,35.1 41.7,38.1 48.5,41.9 "
       id="polygon6"
       style="stroke:#000000;stroke-opacity:1;fill:#b3b3b3" />
  </g>
</svg>
