<?xml version="1.0" encoding="UTF-8" standalone="no"?>
<!-- Created with Inkscape (http://www.inkscape.org/) -->

<svg
   width="18"
   height="18"
   viewBox="0 0 4.7624999 4.7625"
   version="1.1"
   id="svg1"
   inkscape:version="1.3.2 (091e20ef0f, 2023-11-25, custom)"
   sodipodi:docname="spanner_blank.svg"
   xmlns:inkscape="http://www.inkscape.org/namespaces/inkscape"
   xmlns:sodipodi="http://sodipodi.sourceforge.net/DTD/sodipodi-0.dtd"
   xmlns="http://www.w3.org/2000/svg"
   xmlns:svg="http://www.w3.org/2000/svg">
  <sodipodi:namedview
     id="namedview1"
     pagecolor="#ffffff"
     bordercolor="#000000"
     borderopacity="0.25"
     inkscape:showpageshadow="2"
     inkscape:pageopacity="0.0"
     inkscape:pagecheckerboard="0"
     inkscape:deskcolor="#d1d1d1"
     inkscape:document-units="px"
     inkscape:zoom="32"
     inkscape:cx="12.515625"
     inkscape:cy="9.46875"
     inkscape:window-width="1920"
     inkscape:window-height="1131"
     inkscape:window-x="0"
     inkscape:window-y="0"
     inkscape:window-maximized="1"
     inkscape:current-layer="layer2" />
  <defs
     id="defs1" />
  <g
     inkscape:label="Layer 1"
     inkscape:groupmode="layer"
     id="layer1"
     style="display:inline">
    <path
       d="M 3.8201049,3.2129947 C 2.8350612,2.3480298 1.8346849,1.2614864 1.5895397,0.98220619 c 0.05865,-0.26354923 -0.02133,-0.54164233 -0.213073,-0.73344343 -0.206716,-0.2067387 -0.50920002,-0.282829 -0.78953602,-0.1985322 -0.02235,0.00677 -0.03937,0.024612 -0.04512,0.047173 -0.0057,0.022561 8.13e-4,0.046557 0.01743,0.062964 l 0.49915202,0.4992077 -0.08285,0.30928643 -0.309252,0.082858 -0.499152,-0.49920776 c -0.01641,-0.016408 -0.0404,-0.022971 -0.06296,-0.017433 -0.02256,0.00574 -0.0404,0.022766 -0.04717,0.045121 -0.08429,0.2803666 -0.0082,0.58291136 0.19851,0.78962376 0.191743,0.1917643 0.469826,0.2717558 0.733361,0.2130971 0.9776661,0.8577988 1.9829733,1.9487465 2.2305658,2.2308145 -0.058652,0.2635492 0.021328,0.5416424 0.2130732,0.7334435 0.1544212,0.1544383 0.3574462,0.2317626 0.5604816,0.2317626 0.2030249,0 0.4058451,-0.077324 0.5604815,-0.2317626 0.3090472,-0.3090817 0.3090472,-0.8119911 0,-1.1210884 C 4.3617388,3.2343262 4.0836557,3.1543347 3.8201202,3.2129934 Z m 0.6398446,1.2406949 c -0.2573669,0.2573956 -0.6763473,0.2573956 -0.9339084,0 C 3.3591094,4.2867391 3.2938948,4.0414406 3.3556234,3.8133901 3.3613634,3.7920601 3.3562387,3.7692941 3.3416784,3.7526841 2.6812917,2.9964167 1.673771,2.0059394 1.0501927,1.4609428 c -0.0121,-0.010665 -0.02768,-0.016408 -0.04348,-0.016408 -0.0057,0 -0.01148,8.215e-4 -0.01723,0.00226 -0.228046,0.061736 -0.473312,-0.00349 -0.640228,-0.1704367 C 0.2048817,1.1319691 0.1370007,0.93138399 0.1601737,0.73266806 L 0.5998547,1.172398 c 0.01661,0.016613 0.04101,0.023176 0.06399,0.017023 l 0.383082,-0.1025477 c 0.02276,-0.00615 0.0406,-0.023996 0.04676,-0.046762 l 0.102537,-0.38312434 c 0.0062,-0.022766 -4.09e-4,-0.047173 -0.01702,-0.063993 L 0.73952368,0.15326406 c 0.19872,-0.023176 0.39928202,0.044506 0.54362902,0.1891022 0.166932,0.1669504 0.232146,0.4122489 0.170418,0.64029943 -0.0057,0.02133 -6.16e-4,0.044096 0.01394,0.060706 0.6604016,0.7562824 1.667917,1.7467536 2.2914862,2.2917414 0.016611,0.014562 0.03958,0.019895 0.0607,0.013947 0.228046,-0.061735 0.4733118,0.00349 0.6402278,0.1704367 0.2573669,0.2573956 0.2573669,0.6764229 0,0.9340128 z M 4.0904023,3.495892 3.6634368,3.6103373 c -0.022763,0.00615 -0.040605,0.023996 -0.046757,0.046762 L 3.5022473,4.0841126 c -0.00615,0.022766 4.087e-4,0.047173 0.017021,0.063993 l 0.3125331,0.3125679 c 0.012509,0.012512 0.029531,0.019279 0.046757,0.019279 0.00574,0 0.011484,-8.136e-4 0.017021,-0.00226 L 4.322545,4.3632478 C 4.345308,4.3570978 4.36315,4.3392518 4.369302,4.3164858 L 4.4837345,3.8894724 c 0.00615,-0.022765 -4.087e-4,-0.047173 -0.017021,-0.063993 L 4.1541805,3.5129115 C 4.1375695,3.4962985 4.1131655,3.4897355 4.0901945,3.4958885 Z M 4.2515906,4.245297 3.8984495,4.340053 3.6398489,4.0814236 3.7345939,3.7282429 4.0877351,3.6334869 4.3463357,3.8921163 Z"
       id="path1"
       style="stroke-width:0;stroke-dasharray:none;fill:#000000;fill-opacity:1"
       inkscape:label="path1"
       sodipodi:nodetypes="ccccccccccccccccscccccccccccsccccccccccccccccccccccccsccccccccccccc" />
    <path
       style="fill:#ffdd55;fill-opacity:1;stroke-width:0;stroke-dasharray:none"
       d="m 14.85473,17.527443 c -0.998956,-0.08121 -1.874101,-0.822685 -2.155722,-1.82645 -0.08393,-0.299153 -0.09724,-0.815924 -0.02993,-1.161936 0.03147,-0.161776 0.03488,-0.246752 0.01192,-0.297148 -0.03536,-0.07761 -0.353481,-0.43999 -1.117285,-1.272729 C 9.536625,10.759147 6.6735275,7.920765 4.4965941,5.9630703 3.8524588,5.3838063 3.9192641,5.4188906 3.5862381,5.4849741 2.9955275,5.60219 2.3376924,5.4893688 1.8125,5.1807713 1.5315894,5.0157109 1.1249142,4.6090356 0.95985391,4.328125 0.74826216,3.9680241 0.6350784,3.5803768 0.61769433,3.15625 l -0.01473,-0.359375 0.85794007,0.854524 c 0.779426,0.7763226 0.8676593,0.8546826 0.9641429,0.8562557 0.1826315,0.00298 1.5656221,-0.38114 1.6442843,-0.4566906 C 4.1593991,3.9644594 4.5633969,2.4772664 4.5317722,2.3486312 4.5190294,2.2967982 4.1985169,1.9516871 3.6783288,1.4296875 2.7402112,0.48830328 2.7840897,0.57718669 3.2654825,0.59339567 4.0378356,0.61940158 4.8424509,1.1326716 5.2500641,1.859375 c 0.2319537,0.4135327 0.3484393,0.9842002 0.2934253,1.4375 -0.014602,0.1203125 -0.035698,0.304377 -0.04688,0.4090322 l -0.020332,0.1902822 0.2615853,0.2940928 c 1.3674472,1.5373812 2.6609559,2.8858019 4.7308883,4.9317225 1.545382,1.5274553 3.569569,3.4137383 3.787158,3.5291463 0.06683,0.03544 0.119497,0.03369 0.347555,-0.01156 0.317293,-0.06296 0.820018,-0.04974 1.115287,0.02932 0.27227,0.07291 0.720318,0.303698 0.944528,0.486531 0.380855,0.310567 0.657122,0.733218 0.807381,1.235184 0.107183,0.35806 0.120879,0.902655 0.03144,1.25 -0.313927,1.219123 -1.393755,1.988733 -2.647367,1.886818 z m 0.696832,-0.80758 c 0.448463,-0.119701 0.846557,-0.238061 0.884653,-0.263022 0.05504,-0.03607 0.100068,-0.1598 0.219296,-0.602675 0.274059,-1.017998 0.318825,-1.205096 0.305282,-1.275938 -0.02022,-0.105785 -1.321915,-1.390728 -1.408856,-1.390728 -0.08727,0 -1.683063,0.425594 -1.777786,0.474133 -0.08968,0.04595 -0.120762,0.135906 -0.367526,1.063563 -0.125887,0.473245 -0.198102,0.801054 -0.186582,0.846954 0.01034,0.04118 0.310352,0.365238 0.6667,0.720116 0.574484,0.572115 0.659324,0.645234 0.748669,0.645234 0.05542,0 0.467687,-0.09794 0.91615,-0.217637 z"
       id="path2"
       transform="scale(0.26458333)" />
  </g>
  <g
     inkscape:groupmode="layer"
     id="layer2"
     inkscape:label="Layer 2"
     style="display:inline" />
</svg>
