<?xml version="1.0" encoding="UTF-8" standalone="no"?>
<svg
   data-name="Layer 1"
   viewBox="0 0 60 60"
   x="0px"
   y="0px"
   version="1.1"
   id="svg2"
   sodipodi:docname="scale.svg"
   width="18"
   height="18"
   inkscape:version="1.3.1 (9b9bdc1480, 2023-11-25, custom)"
   xmlns:inkscape="http://www.inkscape.org/namespaces/inkscape"
   xmlns:sodipodi="http://sodipodi.sourceforge.net/DTD/sodipodi-0.dtd"
   xmlns="http://www.w3.org/2000/svg"
   xmlns:svg="http://www.w3.org/2000/svg">
  <defs
     id="defs2" />
  <sodipodi:namedview
     id="namedview2"
     pagecolor="#ffffff"
     bordercolor="#000000"
     borderopacity="0.25"
     inkscape:showpageshadow="2"
     inkscape:pageopacity="0.0"
     inkscape:pagecheckerboard="0"
     inkscape:deskcolor="#d1d1d1"
     inkscape:zoom="17.103145"
     inkscape:cx="5.7591746"
     inkscape:cy="17.394461"
     inkscape:window-width="1920"
     inkscape:window-height="963"
     inkscape:window-x="0"
     inkscape:window-y="32"
     inkscape:window-maximized="1"
     inkscape:current-layer="svg2" />
  <path
     d="M 1.6257226,60 H 19.62789 c 0.659366,-0.0018 1.253238,-0.39916 1.506503,-1.007948 0.248021,-0.607109 0.106975,-1.303789 -0.357659,-1.766619 L 12.929914,49.378613 30,35.643333 l 17.070086,13.724441 -7.84682,7.857659 c -0.464634,0.462829 -0.60568,1.159509 -0.35766,1.766619 C 39.118871,59.60084 39.712743,59.99818 40.372109,60 H 58.374277 C 59.272139,60 60,59.272139 60,58.374277 V 40.372109 c -0.0018,-0.659366 -0.399161,-1.253238 -1.007949,-1.506502 -0.607109,-0.24802 -1.303789,-0.106975 -1.766618,0.357659 L 49.378613,47.070087 35.643333,30 l 13.73528,-17.070087 7.84682,7.846821 c 0.303909,0.305985 0.717582,0.477698 1.148844,0.476879 0.211472,-0.0017 0.420842,-0.04214 0.617774,-0.11922 C 59.60084,20.881129 59.998179,20.287256 60,19.62789 V 1.6257226 C 60,0.72786066 59.272139,-2.2091394e-7 58.374277,0 H 40.372109 c -0.659366,0.00182035 -1.253238,0.39915958 -1.506503,1.007948 -0.24802,0.6071095 -0.106974,1.3037892 0.35766,1.7666185 L 47.080925,10.632226 30,24.37 12.929914,10.632226 20.776734,2.7745664 C 21.241368,2.3117369 21.382413,1.6150572 21.134393,1.007948 20.881128,0.39915958 20.287256,0.00182035 19.62789,0 H 1.6257226 C 0.72786076,0 -5.522848e-8,0.72786082 0,1.6257226 V 19.62789 c 0.00182035,0.659366 0.39915958,1.253238 1.007948,1.506503 0.1969325,0.07708 0.4063028,0.117482 0.6177746,0.11922 0.4312618,8.19e-4 0.8449349,-0.170894 1.1488439,-0.476879 L 10.621387,12.929913 24.37,30 10.632226,47.080924 2.7745665,39.223266 C 2.311737,38.758632 1.6150573,38.617587 1.007948,38.865607 0.39915992,39.118872 0.00182075,39.712744 0,40.372109 V 58.374277 C -2.7614245e-7,59.272139 0.72786061,60 1.6257226,60 Z"
     id="path1"
     style="fill:#504416;fill-opacity:1;stroke-width:1.08381"
     sodipodi:nodetypes="scccccccccssccccccccccsscccccccccssccccccccccss" />
</svg>
